<?xml version="1.0" standalone="no"?>
<!DOCTYPE svg PUBLIC "-//W3C//DTD SVG 20010904//EN"
 "http://www.w3.org/TR/2001/REC-SVG-20010904/DTD/svg10.dtd">
<svg version="1.0" xmlns="http://www.w3.org/2000/svg"
 width="700.000000pt" height="700.000000pt" viewBox="0 0 700.000000 700.000000"
 preserveAspectRatio="xMidYMid meet">
<metadata>
Created by potrace 1.14, written by Peter Selinger 2001-2017
</metadata>
<g transform="translate(0.000000,700.000000) scale(0.100000,-0.100000)"
fill="#000000" stroke="none">
<path d="M2250 3495 l0 -1665 1335 0 1335 0 -2 588 -3 587 -82 3 -83 3 0 -511
0 -510 -1165 0 -1165 0 0 1505 0 1505 1165 0 1165 0 0 -430 0 -431 83 3 82 3
3 508 2 507 -1335 0 -1335 0 0 -1665z"/>
<path d="M2910 4360 l0 -80 675 0 675 0 0 80 0 80 -675 0 -675 0 0 -80z"/>
<path d="M5490 4196 c-184 -111 -610 -367 -946 -569 l-610 -366 -193 -262
c-105 -144 -190 -264 -187 -266 3 -3 146 19 319 49 l314 55 939 563 c516 309
945 568 953 575 11 11 -8 48 -110 219 -68 113 -128 206 -134 205 -5 0 -161
-92 -345 -203z m339 -86 c30 -50 37 -68 28 -76 -7 -7 -396 -242 -866 -525
l-855 -513 -95 -18 c-53 -10 -102 -17 -110 -16 -8 2 12 36 55 92 l69 89 860
518 c473 284 863 517 868 516 4 -1 25 -31 46 -67z"/>
<path d="M2910 3905 l0 -85 675 0 675 0 0 85 0 85 -675 0 -675 0 0 -85z"/>
</g>
</svg>
